<?xml version="1.0" encoding="utf-8"?>
<!-- Generator: Adobe Illustrator 14.0.0, SVG Export Plug-In . SVG Version: 6.00 Build 43363)  -->
<!DOCTYPE svg PUBLIC "-//W3C//DTD SVG 1.1//EN" "http://www.w3.org/Graphics/SVG/1.1/DTD/svg11.dtd">
<svg version="1.1" id="Layer_1" xmlns="http://www.w3.org/2000/svg" xmlns:xlink="http://www.w3.org/1999/xlink" x="0px" y="0px"
	 width="104.3px" height="66.41px" viewBox="0 0 104.3 66.41" enable-background="new 0 0 104.3 66.41" xml:space="preserve">
<g>
	<defs>
		<rect id="SVGID_1_" y="-0.001" width="104.3" height="66.411"/>
	</defs>
	<clipPath id="SVGID_2_">
		<use xlink:href="#SVGID_1_"  overflow="visible"/>
	</clipPath>
	<path clip-path="url(#SVGID_2_)" fill="#493D34" d="M88.664,24.985c-4.34,0-6.826-2.827-6.826-10.091
		c0-7.216,2.438-9.945,6.777-9.945c4.338,0,6.824,2.974,6.824,10.188C95.439,22.255,93.001,24.985,88.664,24.985 M88.664,26.496
		c5.021,0,8.677-3.363,8.677-11.553c0-8.239-3.9-11.505-8.823-11.505c-4.924,0-8.58,3.315-8.58,11.602
		C79.937,23.279,83.69,26.496,88.664,26.496 M62.046,26.155h14.918v-1.511H63.996l12.578-19.11V3.779H63.021V5.29h11.604
		L62.046,24.4V26.155z M50.104,16.21c-3.023,0-5.509-1.462-5.509-5.557c0-4.145,2.437-5.753,5.557-5.753
		c3.315,0,5.459,1.317,5.459,5.509C55.611,14.455,53.271,16.21,50.104,16.21 M46.593,24.546h5.898c3.364,0,4.875,1.754,4.875,4.485
		c0,3.852-2.632,5.899-7.507,5.899c-4.68,0-6.386-2.145-6.386-4.826C43.474,27.423,44.79,25.96,46.593,24.546 M52.736,3.779
		c-0.731-0.244-1.609-0.341-2.536-0.341c-4.29,0-7.459,2.535-7.459,7.166c0,2.73,1.17,4.729,3.023,5.899
		c-1.414,1.217-2.779,2.681-2.779,4.826c0,1.511,0.829,2.535,2.096,2.973c-1.852,1.317-3.51,3.023-3.51,5.802
		c0,3.558,2.877,6.337,8.337,6.337c5.849,0,9.359-2.829,9.359-7.411c0-3.948-2.583-6.191-7.117-6.191h-5.119
		c-1.706,0-2.193-0.682-2.193-1.755c0-1.658,1.023-3.022,2.047-4.046c0.975,0.439,2.096,0.634,3.266,0.634
		c4.143,0,7.313-2.633,7.313-7.215c0-2.048-0.684-3.9-1.999-5.168l3.802-0.341v-1.17H52.736z"/>
	<rect x="35.596" y="3.685" clip-path="url(#SVGID_2_)" fill="#493D34" width="0.805" height="62.561"/>
	<path clip-path="url(#SVGID_2_)" fill="#F2A000" d="M5.084,3.48c0,0-0.02,0.003-0.052,0.01L3.866,3.681l3.351,2.454l8.853,6.583
		c0,0,0.959,0.714,1.647-0.264l7.161-10.197L26.469,0L7.941,3.017L5.084,3.48z"/>
	<path clip-path="url(#SVGID_2_)" fill="#AAA096" d="M3.481,25.056c0,0,0.003,0.02,0.01,0.052l0.191,1.166l2.454-3.351l6.583-8.853
		c0,0,0.714-0.959-0.265-1.647L2.258,5.262L0,3.671l3.018,18.528L3.481,25.056z"/>
	<path clip-path="url(#SVGID_2_)" fill="#005A8C" d="M26.833,5.137c0,0-0.003-0.021-0.01-0.053l-0.19-1.166L24.178,7.27
		l-6.583,8.852c0,0-0.714,0.959,0.265,1.648l10.196,7.161l2.258,1.591L27.295,7.993L26.833,5.137z"/>
	<path clip-path="url(#SVGID_2_)" fill="#493D34" d="M25.198,26.755c0,0,0.02-0.003,0.052-0.01l1.166-0.19l-3.351-2.454
		l-8.853-6.583c0,0-0.959-0.714-1.647,0.264L5.404,27.979l-1.591,2.257l18.528-3.017L25.198,26.755z"/>
	<path clip-path="url(#SVGID_2_)" fill="#493D34" d="M98.298,57.672h-2.227v0.781h1.275v6.92h-1.275v0.799h3.52v-0.799h-1.275v-3.64
		c-0.018-0.882-0.033-1.749,0.51-2.497c0.391-0.545,1.021-0.902,1.717-0.902c0.426,0,0.715,0.137,0.851,0.238
		c0.663,0.408,0.646,1.105,0.663,2.432v4.369h-1.292v0.799h3.536v-0.799h-1.275v-5.219c0-0.969-0.136-1.803-1.037-2.33
		c-0.425-0.254-0.85-0.34-1.326-0.34c-0.391,0-1.309,0.051-2.006,0.936c-0.187,0.221-0.322,0.492-0.357,0.561V57.672z
		 M89.262,61.922c0-1.818,0.476-2.805,1.207-3.299c0.374-0.254,0.765-0.355,1.206-0.355c0.681,0,1.072,0.254,1.293,0.424
		c1.207,0.917,1.121,3.01,1.121,3.23c0,1.088-0.17,2.498-1.121,3.246c-0.391,0.273-0.799,0.408-1.293,0.408
		c-0.646,0-1.07-0.254-1.274-0.408C89.721,64.658,89.262,63.689,89.262,61.922 M88.328,61.922c0,3.332,1.75,4.488,3.348,4.488
		c1.615,0,3.35-1.156,3.35-4.488c0-1.412-0.34-3.061-1.581-3.943c-0.696-0.512-1.462-0.545-1.769-0.545
		C90.078,57.434,88.328,58.59,88.328,61.922 M81.685,54.119h-2.262V54.9h1.275v10.473h-1.275v0.799h3.35v-0.799h-1.088v-2.686
		l1.377-1.344l2.346,4.029h-0.9v0.799h3.468v-0.799h-1.411l-2.855-4.574l2.465-2.346h1.156v-0.781h-3.554v0.781h1.274l-3.365,3.264
		V54.119z M75.888,55.684h1.358v-1.274h-1.358V55.684z M77.146,57.672h-2.261v0.781h1.274v6.92h-1.274v0.799h3.519v-0.799h-1.258
		V57.672z M68.515,65.373l4.777-7.225v-0.477h-5.865v1.988h0.816v-1.207h3.791l-4.795,7.242v0.477h6.188v-2.227h-0.8v1.428H68.515z
		 M63.887,57.672v-2.516h-0.986v2.516h-1.207v0.781h1.207v5.338c0,0.748,0.034,1.633,0.697,2.143c0.221,0.152,0.595,0.34,1.207,0.34
		c0.663,0,1.054-0.17,1.309-0.271v-0.885c-0.459,0.289-0.782,0.34-1.036,0.34c-0.392,0-0.766-0.17-0.97-0.51
		c-0.136-0.221-0.17-0.424-0.186-0.936c-0.035-0.459-0.035-0.918-0.035-1.377v-4.182h2.022v-0.781H63.887z M55.402,61.105
		c0.085-0.543,0.153-0.781,0.256-1.055c0.135-0.355,0.713-1.717,2.176-1.717c0.696,0,1.089,0.307,1.291,0.51
		c0.748,0.748,0.731,2.041,0.748,2.262H55.402z M60.893,61.887c0.017-0.084,0.017-0.17,0.017-0.254c0-0.426-0.051-0.834-0.084-0.986
		c-0.272-1.818-1.14-2.635-1.903-2.957c-0.341-0.137-0.681-0.205-1.056-0.205c-1.037,0-1.699,0.51-1.988,0.766
		c-1.479,1.275-1.463,3.365-1.463,3.875c0,0.375-0.033,3.043,1.955,3.961c0.238,0.119,0.646,0.273,1.31,0.273
		c1.751,0,2.516-1.123,2.788-1.734c0.204-0.459,0.238-0.799,0.255-1.004h-0.901c-0.033,0.137-0.085,0.494-0.289,0.85
		c-0.544,0.92-1.479,1.037-1.818,1.037c-0.731,0-1.174-0.322-1.376-0.51c-1.106-0.951-0.987-2.89-0.987-3.094L60.893,61.887z
		 M41.714,57.672v0.781h1.139l1.853,7.803h0.867l1.105-3.672c0.187-0.662,0.374-1.342,0.561-2.006
		c0.187-0.68,0.357-1.377,0.544-2.057l0.51,1.988c0.17,0.682,0.374,1.377,0.561,2.074l1.071,3.672h0.867l1.921-7.803h1.258v-0.781
		h-3.179v0.781h1.088l-0.731,3.094c-0.289,1.123-0.493,2.262-0.731,3.385c-0.323-1.26-0.663-2.518-1.02-3.775l-0.986-3.484h-1.105
		l-1.071,3.434c-0.102,0.289-0.187,0.596-0.272,0.885c-0.102,0.34-0.187,0.662-0.272,1.002c-0.17,0.629-0.34,1.241-0.493,1.854
		c-0.102-0.545-0.221-1.088-0.34-1.633c-0.051-0.305-0.102-0.594-0.17-0.883c-0.051-0.271-0.119-0.545-0.187-0.816l-0.68-3.061
		h1.122v-0.781H41.714z"/>
	<path clip-path="url(#SVGID_2_)" fill="#493D34" d="M78.875,38.318h-2.312v0.783h1.275v10.471h-1.275v0.799h3.587v-0.799h-1.275
		V38.318z M73.333,46.291c0,1.242,0,1.785-0.323,2.363c-0.204,0.357-0.731,1.037-1.853,1.055c-0.953,0-1.395-0.561-1.548-0.9
		c-0.067-0.137-0.17-0.408-0.17-0.783c0-0.799,0.425-1.207,0.663-1.395c0.629-0.51,1.564-0.73,3.23-1.053V46.291z M69.626,44.438
		c0.171-0.731,0.188-1.054,0.477-1.36c0.238-0.271,0.748-0.543,1.581-0.543c0.442,0,0.731,0.084,0.918,0.17
		c0.392,0.152,0.696,0.44,0.731,1.274v0.832c-1.123,0.222-2.652,0.459-3.672,1.089c-1.105,0.68-1.207,1.633-1.207,2.16
		c0,1.58,1.155,2.176,1.683,2.346c0.425,0.135,0.748,0.152,0.935,0.152c0.357,0,1.344-0.068,2.04-0.9
		c0.153-0.205,0.238-0.357,0.357-0.597v1.31h2.125v-0.799h-1.275v-5.117c0-0.492,0-1.07-0.187-1.529
		c-0.238-0.545-0.969-1.24-2.381-1.24c-0.611,0-1.394,0.117-2.532,0.883l-0.306,1.87H69.626z M65.191,41.871v-2.517h-0.986v2.517
		h-1.207v0.783h1.207v5.338c0,0.748,0.034,1.631,0.697,2.141c0.221,0.154,0.596,0.342,1.207,0.342c0.663,0,1.055-0.172,1.309-0.273
		v-0.883c-0.459,0.289-0.781,0.34-1.036,0.34c-0.392,0-0.765-0.17-0.97-0.51c-0.136-0.223-0.17-0.426-0.187-0.936
		c-0.034-0.459-0.034-0.918-0.034-1.377v-4.182h2.023v-0.783H65.191z M59.564,39.883h1.359v-1.274h-1.359V39.883z M60.822,41.871
		h-2.261v0.783h1.274v6.918h-1.274v0.799h3.519v-0.799h-1.258V41.871z M51.744,46.121c0-1.088,0.17-2.414,1.087-3.145
		c0.494-0.373,0.986-0.441,1.207-0.441c0.442,0,1.259,0.17,1.803,1.139c0.408,0.713,0.51,1.633,0.51,2.447
		c0,1.733-0.459,2.652-1.122,3.162c-0.459,0.357-0.952,0.426-1.173,0.426c-0.425,0-1.258-0.188-1.819-1.139
		C51.965,48.094,51.744,47.346,51.744,46.121 M51.812,41.871h-2.244v0.783h1.275v10.471h-1.275v0.799h3.57v-0.799h-1.326V49.08
		c0.051,0.068,0.187,0.322,0.374,0.543c0.68,0.834,1.547,0.936,1.938,0.936c1.002,0,1.614-0.51,1.869-0.766
		c1.31-1.207,1.345-3.229,1.345-3.672c0-1.41-0.46-3.127-1.685-3.977c-0.611-0.408-1.258-0.459-1.513-0.459
		c-1.14,0-1.785,0.68-2.023,1.002c-0.119,0.152-0.204,0.307-0.306,0.477V41.871z M48.089,44.625V41.82h-0.578l-0.153,0.783
		c-0.272-0.29-0.408-0.408-0.578-0.512c-0.425-0.271-0.986-0.406-1.496-0.406c-0.884,0-1.853,0.424-2.278,1.273
		c-0.068,0.137-0.221,0.494-0.221,0.969c0,0.375,0.068,1.004,0.782,1.564c0.493,0.391,1.156,0.664,1.292,0.732
		c0.255,0.117,0.493,0.236,0.748,0.355c0.493,0.238,1.224,0.51,1.581,0.986c0.085,0.102,0.221,0.357,0.221,0.715
		c0,0.271-0.068,0.51-0.204,0.748c-0.187,0.305-0.629,0.713-1.496,0.713c-1.411,0-2.04-1.07-2.21-1.496
		c-0.119-0.271-0.136-0.492-0.17-0.629h-0.646v2.805h0.612l0.153-1.088c0.102,0.17,0.289,0.426,0.663,0.697
		c0.663,0.51,1.275,0.527,1.615,0.527c0.374,0,1.734-0.068,2.38-1.275c0.272-0.459,0.289-0.85,0.289-1.07
		c0-0.611-0.204-1.344-1.377-1.973c-0.187-0.102-0.391-0.203-0.595-0.289c-0.323-0.152-0.629-0.306-0.952-0.459
		c-0.663-0.322-1.7-0.713-1.717-1.648c0-0.17,0.034-0.51,0.323-0.85c0.425-0.494,1.088-0.51,1.275-0.51
		c0.357,0,1.564,0.102,1.955,1.291c0.102,0.307,0.119,0.51,0.119,0.85H48.089z"/>
</g>
</svg>
